<?xml version="1.0" encoding="UTF-8"?>
<svg id="Layer_1" data-name="Layer 1" xmlns="http://www.w3.org/2000/svg" width="452.286" height="387.137" viewBox="0 0 452.286 387.137">
  <defs>
    <style>
      .cls-1 {
        fill: #2f2a00;
      }

      .cls-2 {
        fill: #fff;
      }

      .cls-3 {
        fill: #fffbf4;
      }

      .cls-4 {
        fill: #e9835b;
      }

      .cls-5 {
        stroke: #fff;
      }

      .cls-5, .cls-6 {
        fill: none;
        stroke-miterlimit: 10;
      }

      .cls-7 {
        fill: #3f2935;
      }

      .cls-8 {
        fill: #dba291;
      }

      .cls-9 {
        fill: #ffa488;
      }

      .cls-10 {
        fill: #9a9b82;
      }

      .cls-11 {
        fill: #cfc293;
      }

      .cls-12 {
        fill: #603030;
      }

      .cls-13 {
        fill: #b9bc7e;
      }

      .cls-14 {
        fill: #f7e4d2;
      }

      .cls-15 {
        fill: #d1c795;
      }

      .cls-16 {
        fill: #743f3d;
      }

      .cls-17 {
        fill: #d7ca8c;
      }

      .cls-18 {
        fill: #e2c9b5;
      }

      .cls-19 {
        fill: #ea8d78;
      }

      .cls-20 {
        fill: #5e4453;
      }

      .cls-6 {
        stroke: #e5c2a5;
      }

      .cls-21 {
        fill: #cc6a4c;
      }
    </style>
  </defs>
  <path class="cls-6" d="m402.039,353.678s19.892-60.057,1.708-85.031-32.598-35.995-23.488-56.132,5.055-53.054-19.022-62.939c-24.077-9.886-12.899-47.102-39.556-68.471s-48.391-11.704-61.171-38.063c-11.225-23.15-34.511-44.972-57.815-22.538-5.109,4.918-8.538,11.331-10.319,18.269-1.863,7.256-8.372,19.82-30.355,32.384-33.819,19.33-20.41,31.788-33.993,54.114-13.584,22.326-57.13,11.092-73.469,53.922-16.338,42.83,18.924,57.207,16.063,82.811-2.861,25.604-19.8,39.566-9.481,90.967"/>
  <path class="cls-6" d="m411.652,354.329s23.269-66.446,3.65-91.682c-19.619-25.236-35.171-36.373-25.342-56.722s5.454-53.611-20.524-63.6c-25.978-9.989-13.917-47.596-42.678-69.19-28.761-21.594-48.012-19.529-61.801-46.164-12.111-23.393-41.433-37.742-66.576-15.072-5.512,4.97-9.211,11.45-11.134,18.461-2.01,7.332-9.033,20.028-32.751,32.724-36.488,19.533-22.02,32.122-36.677,54.682-14.656,22.56-55.169,14.823-73.287,52.61-20.204,42.137,11.178,59.076,8.092,84.949-3.087,25.873-10.844,46.412.289,98.353"/>
  <path class="cls-14" d="m205.883,33.901c-4.99,4.918-8.339,11.331-10.079,18.269-1.82,7.256-8.178,19.82-29.649,32.384-33.032,19.33-19.935,31.788-33.202,54.114-13.268,22.326-51.063,5.199-67.021,48.029-15.958,42.83,20.835,62.163,18.041,87.767s-24.76,27.106-14.681,78.507h332.966s17.761-45.954,0-70.928-31.84-35.995-22.941-56.132c8.898-20.137,4.937-53.054-18.58-62.939-23.517-9.886-12.598-47.102-38.635-68.471-26.037-21.369-47.265-11.704-59.748-38.063-10.964-23.15-33.708-44.972-56.469-22.538h-.002Z"/>
  <path class="cls-5" d="m207.195,45.94c-4.773,4.705-7.976,10.839-9.641,17.474-1.741,6.94-7.822,18.958-28.359,30.975-31.595,18.489-19.067,30.405-31.758,51.76s-48.842,4.973-64.105,45.939c-15.264,40.966,19.928,59.458,17.256,83.949-2.673,24.49-23.683,25.927-14.042,75.091h318.479s16.988-43.955,0-67.842c-16.988-23.887-30.454-34.429-21.943-53.69,8.511-19.261,4.723-50.746-17.771-60.201s-12.05-45.052-36.954-65.492c-24.904-20.44-45.208-11.195-57.148-36.407-10.487-22.143-32.241-43.015-54.013-21.557h-.001Z"/>
  <path class="cls-8" d="m330.088,167.318c-1.965-1.142-4.544-.315-4.963-.955s2.115-2.614,2.93-4.686-.101-7.442-3.44-4.913-3.49,6.839-3.49,6.839c0,0-.054.237-.098.632-1.133-2.665-.524-6.344-.518-6.385.034-.2-.099-.39-.299-.425-.209-.035-.39.1-.424.3-.028.157-.514,3.105.208,5.761-1.755-2.024-4.314-3.255-4.455-3.321-.182-.086-.402-.009-.489.175-.087.183-.009.403.175.489.039.019,3.68,1.771,5.103,4.405-.439-.318-.746-.482-.746-.482,0,0-3.359-2.701-7.454-1.823s-.63,5.08,1.47,5.816c2.1.735,5.249.105,5.459.841.21.735-2.1,2.15-2.52,4.385-.42,2.235,2.205,4.552,3.675,4.654,1.332.093,3.345-4.379,3.323-7.721,2.577,2.033,6.91,3.262,7.674,2.24.883-1.181.844-4.683-1.121-5.824v-.002Z"/>
  <path class="cls-8" d="m112.74,201.931c-.368-1.831-2.279-2.969-2.114-3.575.165-.606,2.758-.121,4.475-.746s4.52-4.113,1.148-4.792c-3.372-.679-6.104,1.574-6.104,1.574,0,0-.175.096-.442.283,1.022-2.148,3.615-3.775,3.644-3.794.142-.088.186-.274.098-.416-.092-.147-.274-.186-.415-.098-.112.069-2.189,1.373-3.429,3.263.289-2.182-.347-4.427-.382-4.55-.046-.159-.213-.252-.374-.206-.16.046-.252.214-.205.374.01.034.914,3.229.069,5.539-.044-.443-.11-.722-.11-.722,0,0-.168-3.538-2.936-5.582-2.768-2.043-3.466,2.377-2.775,4.07s2.792,3.289,2.454,3.819-2.465-.123-4.067.835-1.598,3.834-.861,4.795c.668.87,4.512-.323,6.555-2.156.153,2.693,1.755,6.03,2.8,5.944,1.206-.099,3.338-2.029,2.971-3.86h0Z"/>
  <path class="cls-8" d="m225.17,73.414c-.368-1.831-2.279-2.969-2.114-3.575.165-.606,2.758-.121,4.475-.746,1.717-.625,4.52-4.113,1.148-4.792-3.372-.679-6.104,1.574-6.104,1.574,0,0-.175.096-.442.283,1.022-2.148,3.615-3.775,3.644-3.794.142-.088.186-.274.098-.416-.092-.148-.274-.186-.415-.098-.112.069-2.189,1.373-3.429,3.263.289-2.182-.347-4.427-.382-4.55-.046-.159-.213-.252-.374-.206-.16.046-.252.214-.205.374.01.034.914,3.229.069,5.539-.044-.443-.11-.722-.11-.722,0,0-.168-3.538-2.936-5.582-2.768-2.043-3.466,2.377-2.775,4.07.691,1.693,2.792,3.289,2.454,3.819-.338.53-2.465-.123-4.067.835-1.602.958-1.598,3.834-.861,4.795.668.87,4.512-.323,6.555-2.156.153,2.693,1.755,6.03,2.8,5.944,1.206-.099,3.338-2.029,2.971-3.86h0Z"/>
  <g>
    <path class="cls-2" d="m174.132,123.066c-.354.477-1.027.577-1.504.223-.477-.354-.577-1.028-.223-1.505.354-.477,1.027-.577,1.504-.223.477.354.577,1.028.223,1.505Z"/>
    <path class="cls-2" d="m176.906,118.483c-.354.477-1.027.577-1.504.223-.477-.354-.577-1.028-.223-1.505s1.027-.577,1.504-.223.577,1.028.223,1.505Z"/>
    <path class="cls-2" d="m180.131,125.713c-.354.477-1.027.577-1.504.223-.477-.354-.577-1.028-.223-1.505.354-.477,1.027-.577,1.504-.223.477.354.577,1.028.223,1.505Z"/>
  </g>
  <g>
    <path class="cls-2" d="m318.855,135.674c-.354.477-1.027.577-1.504.223s-.577-1.028-.223-1.505,1.027-.577,1.504-.223c.477.354.577,1.028.223,1.505Z"/>
    <path class="cls-2" d="m321.629,131.091c-.354.477-1.027.577-1.504.223-.477-.354-.577-1.028-.223-1.505s1.027-.577,1.504-.223c.477.354.577,1.028.223,1.505Z"/>
    <path class="cls-2" d="m324.854,138.321c-.354.477-1.027.577-1.504.223-.477-.354-.577-1.028-.223-1.505s1.027-.577,1.504-.223c.477.354.577,1.028.223,1.505Z"/>
  </g>
  <g>
    <path class="cls-2" d="m267.811,92.036c-.354.477-1.027.577-1.504.223-.477-.354-.577-1.028-.223-1.505s1.027-.577,1.504-.223c.477.354.577,1.028.223,1.505Z"/>
    <path class="cls-2" d="m270.585,87.452c-.354.477-1.027.577-1.504.223-.477-.354-.577-1.028-.223-1.505s1.027-.577,1.504-.223c.477.354.577,1.028.223,1.505Z"/>
    <path class="cls-2" d="m273.81,94.682c-.354.477-1.027.577-1.504.223-.477-.354-.577-1.028-.223-1.505s1.027-.577,1.504-.223c.477.354.577,1.028.223,1.505Z"/>
  </g>
  <g>
    <path class="cls-2" d="m281.716,154.663c-.458-.379-.522-1.057-.144-1.515s1.056-.523,1.514-.144c.458.378.522,1.057.144,1.515s-1.056.523-1.514.144Z"/>
    <path class="cls-2" d="m286.146,157.674c-.458-.378-.522-1.057-.144-1.515s1.056-.523,1.514-.144.522,1.057.144,1.515-1.056.523-1.514.144Z"/>
    <path class="cls-2" d="m278.763,160.521c-.458-.378-.522-1.057-.144-1.515s1.056-.523,1.514-.144c.458.378.522,1.057.144,1.515s-1.056.523-1.514.144Z"/>
  </g>
  <path class="cls-2" d="m126.898,177.258c0,.756-.612,1.368-1.367,1.368s-1.367-.613-1.367-1.368.612-1.368,1.367-1.368,1.367.612,1.367,1.368Z"/>
  <path class="cls-2" d="m310.098,106.74c0,.938-.76,1.699-1.697,1.699s-1.698-.761-1.698-1.699.76-1.699,1.698-1.699,1.697.761,1.697,1.699Z"/>
  <path class="cls-2" d="m192.774,159.692c0,.938-.76,1.699-1.697,1.699s-1.698-.761-1.698-1.699.76-1.699,1.698-1.699,1.697.761,1.697,1.699Z"/>
  <path class="cls-2" d="m225.226,48.746c0,.572-.464,1.036-1.036,1.036s-1.036-.464-1.036-1.036.464-1.037,1.036-1.037,1.036.464,1.036,1.037Z"/>
  <path class="cls-2" d="m304.463,200.961c0,.851-.689,1.541-1.54,1.541s-1.54-.69-1.54-1.541.689-1.541,1.54-1.541,1.54.69,1.54,1.541Z"/>
  <path class="cls-2" d="m203.469,83.767c0,.851-.689,1.541-1.54,1.541s-1.54-.69-1.54-1.541.689-1.541,1.54-1.541,1.54.69,1.54,1.541Z"/>
  <path class="cls-14" d="m33.728,341.804h411.075c3.027,0,3.859,4.169,1.058,5.32-27.495,11.295-100.409,36.884-202.597,39.806-95.025,2.718-174.418-22.013-211.216-35.973-4.917-1.865-3.58-9.153,1.68-9.153h0Z"/>
  <g>
    <path class="cls-13" d="m170.744,255.696c-.909-16.238-17.926-19.502-19.628-23.543-1.701-4.041-4.449-12.306-16.702-16.204-12.253-3.898-19.877,3.307-26.743-1.105-6.866-4.412-12.976-8.06-21.16-2.511-8.184,5.55-13.983,3.509-25.798,2.171s-21.197,10.057-21.198,10.057c-4.621,4.239-.163,9.607,10.731,12.24,15.383,3.718,10.99,13.709,19.19,17.758,8.2,4.049,17.945.037,24.125,4.937,6.179,4.899,5.713,13.786,13.361,15.872s16.67-2.993,21.046.013,6.76,11.913,11.982,14.989c5.223,3.076,20.003,3.837,20.003,3.837l3.57-.863s8.13-21.409,7.221-37.647h0Z"/>
    <path class="cls-3" d="m161.098,288.235s-3.857-33.147-26.652-48.244c-22.795-15.098-60.179-15.458-71.511-16.084l-11.333-.626s45.749-2.91,68.433,6.316c31.153,12.671,40.029,33.369,41.063,58.639h0Z"/>
    <path class="cls-11" d="m144.371,253.343s-19.061-17.028-21.932-31.201,5.554-19.466-.118-26.641-3.137-20.051,2.969-23.319c6.106-3.267,8.607-10.399,9.205-20.258s8.113-13.526,10.441-10.792c6.41,7.531,3.223,15.232,13.028,20.023s13.282,14.712,10.822,22.835c-2.46,8.123,8.352,10.716,15.512,23.117s1.973,22.769-1.064,30.547c-3.038,7.778,5.381,17.149,2.324,26.115-3.056,8.966-24.15,23.726-24.15,23.726,0,0-10.203-3.772-17.035-34.152h-.002Z"/>
    <path class="cls-3" d="m144.179,154.857s6.294,24.27,13.874,55.558c7.579,31.288,8.855,69.877,8.855,69.877,0,0,4.388-28.005-1.297-54.286s-20.951-67.104-21.431-71.15h0Z"/>
    <path class="cls-13" d="m146.929,266.01c-2.599-13.335,10.508-19.473,11.056-23.094.547-3.621,1.075-10.878,10.195-16.551s16.773-1.406,21.426-6.388c4.653-4.983,8.851-9.192,16.617-6.38,7.766,2.812,12.042-.032,21.334-3.542,9.291-3.51,19.229,3.788,19.229,3.789,4.612,2.483,2.106,7.745-6.174,12.114-11.691,6.17-6.082,13.357-11.89,18.32-5.807,4.963-14.522,3.716-18.519,8.953-3.997,5.236-1.794,12.336-7.557,15.596-5.764,3.26-14.112,1.001-17.037,4.333-2.926,3.333-3.026,11.034-6.623,14.598-3.597,3.563-15.408,7.215-15.408,7.215l-3.068.035s-10.981-15.664-13.58-28.999h0Z"/>
    <path class="cls-3" d="m161.424,290.375s-3.686-27.63,11.669-44.537c15.355-16.907,45.55-24.878,54.597-27.713l9.047-2.835s-37.64,7.042-54.111,19.171c-22.621,16.659-25.556,35.241-21.202,55.914h0Z"/>
    <path class="cls-10" d="m152.41,290.327s-25.114-6.876-38.3-.845c-13.186,6.031-15.619,14.319-15.619,14.319,0,0,5.647,1.975,16.386.471,10.74-1.505,12.349-7.867,19.837-4.841s9.946,5.941,16.25,4.135c6.304-1.807,9.544-8.556,9.544-8.556l-8.099-4.682h0Z"/>
    <path class="cls-10" d="m164.774,291.227s6.753-7.784,16.549-7.266c9.795.518,11.515,3.933,16.315,4.151,4.799.218,7.45-1.296,14.001.941,6.483,2.214,10.316,5.247,10.316,5.247,0,0-6.66,9.64-17.029,7.144s-18.214-4.106-21.606-.631c-3.392,3.475-24.696-2.858-24.696-2.858l6.15-6.728h0Z"/>
  </g>
  <g>
    <path class="cls-15" d="m310.14,260.315s14.118,9.057,43.153,14.118,41.289-3.197,42.887-7.059c1.598-3.863-3.197-5.994-22.109-9.456-18.913-3.463-23.974-7.725-14.651-8.79,9.323-1.066,22.376,7.192,33.564,7.192s18.913-5.949,19.179-10.034c.266-4.084-33.564-5.15-37.826-11.01-4.262-5.86,21.932.266,33.209,1.865,11.277,1.598,15.805-7.192,15.006-10.122-.799-2.93-28.236-3.88-30.9-7.934s11.454-2.606,23.708,0,18.38-6.451,16.782-8.582-24.24-3.729-26.638-7.725,12.253-2.93,19.712-1.332,15.45-5.594,12.786-7.991-19.446-3.197-19.978-6.66c-.533-3.463,22.358-1.598,20.502-6.659-1.856-5.061-8.249-9.797-18.105-9.96s-18.913,10.226-24.24,7.03c-5.328-3.197,13.052-10.921,8.258-13.852s-15.45-1.332-19.179,3.729-3.996,13.585-7.991,13.319c-3.996-.266,2.93-12.253-.533-14.917-3.463-2.664-12.52,2.93-14.384,8.258-1.865,5.328.266,15.983-3.463,16.515-3.729.533.897-17.048-2.349-18.647-3.245-1.598-13.634,8.79-13.9,15.184-.266,6.394,3.197,16.464-2.397,18.088-5.594,1.624-4.528-18.355-8.79-20.219-4.262-1.865-12.786,10.354-11.454,20.36,1.332,10.007,4.262,18.194.266,18.229s-6.926-12.751-10.122-14.882c-3.197-2.131-6.076,3.197-6.9,16.782-.825,13.585,5.584,31.831,6.9,35.162h-.003Z"/>
    <path class="cls-3" d="m305.583,282.199s14.963-38.384,32.369-59.653c17.406-21.269,50.996-34.095,67.181-35.011,0,0-38.289,7.118-62.906,37.56s-33.896,72.067-33.896,72.067l-6.718-1.321,3.97-13.642h0Z"/>
  </g>
  <g>
    <path class="cls-10" d="m34.47,338.574s2.136-7.963,12.625-11.654c10.488-3.69,12.042,6.215,18.646,5.827,6.604-.388,9.671,12.431,9.671,12.431h-43.272l2.331-6.604h0Z"/>
    <path class="cls-13" d="m59.829,344.717c-.608-3.02-1.54-6.424-2.699-10.063,1.899-3.688,7.275-15.4,7.146-29.576-.157-17.206-12.082-35.251-12.082-35.251,0,0-3.132,29.44,2.058,56.521-3.591-9.692-8.195-20.205-12.46-29.393,1.815-3.8,5.079-11.978,5.054-21.676-.035-13.414-9.24-27.541-9.24-27.541,0,0-2.471,21.848,1.045,42.549-3.143-6.575-5.855-11.982-7.495-15.203-.289-4.541-1.411-12.502-5.538-20.313-6.267-11.86-20.984-20.089-20.984-20.089,0,0,9.266,23.827,23.782,41.025,1.312,2.578,3.519,6.968,6.161,12.431-2.016-2.957-4.592-6.103-7.834-8.959-10.064-8.868-26.743-11.346-26.743-11.346,0,0,18.956,21.04,39.901,31.579,2.176,4.72,4.418,9.745,6.556,14.8-2.419-3.287-5.385-6.686-8.971-9.805-12.983-11.292-34.398-14.331-34.398-14.331,0,0,23.19,25.408,49.274,39.072,2.158,5.963,3.877,11.521,4.801,16.107l2.665-.537h0Z"/>
  </g>
  <g>
    <path class="cls-10" d="m402.057,336.594h13.174s5.959-10.978,20.388-18.506c14.428-7.528,15.996-16.608,16.624-20.85.627-4.242-5.646-2.047-15.055,3.599-9.41,5.646-11.919,19.012-15.997,18.759-4.077-.253-1.568-15.618,7.214-20.639,8.782-5.02,15.683-17.253,17.878-25.094s-15.683-2.196-24.152,7.214-7.214,32.39-13.487,35.328,4.705-16.352-7.998-24.221c-5.094-3.155-6.432,5.868-4.863,17.298s9.411,16.762,6.274,27.112h0Z"/>
    <path class="cls-17" d="m379.87,343.415s23.132,2.519,40.996,2.519,24.735-1.603,24.735-1.603c0,0-3.893-7.329-15.345-10.077-11.451-2.748-12.596,4.122-17.635,0-5.039-4.123-14.2-7.1-22.215-4.81-8.016,2.29-10.535,13.971-10.535,13.971h-.001Z"/>
  </g>
  <ellipse class="cls-18" cx="232.587" cy="353.137" rx="138.313" ry="11.333"/>
  <path class="cls-20" d="m361.276,290.603l-10.506,11.077s0,.011-.011.033l-1.976,2.075c-.011.011-.022.011-.022.011l-.121.132c-.011-.011-.033-.022-.044-.033-22.681-14.03-44.56-34.932-50.071-40.322-2.832-2.547-5.489-5.599-7.553-9.244-4.841-8.574-11.384-24.58-15.94-36.304l-.604,2.547-8.212,34.789c3.513,5.39,8.321,13.646,12.438,23.833,2.086,5.171,3.996,10.846,5.467,16.884l-47.194,27.763.011.703-.637-.34-.626.362-.011-.703-48.227-25.93c1.559-7.641,3.831-14.722,6.291-20.968.044-.099.077-.209.121-.307,3.359-8.431,7.081-15.336,9.924-20.101l-9.693-34.998-1.306-4.71-.703-2.536c-4.611,11.45-13.108,31.858-19.036,41.892-2.13,3.601-4.83,6.598-7.728,9.09-5.599,5.28-27.917,25.787-50.861,39.4l-2.097-2.294-10.286-11.274,52.299-49.171,17.675-50.532c10.177-21.835,17.806-22.143,17.806-22.143v.011c1.405-1.186,3.008-2.185,4.808-2.887.582-.231,1.175-.461,1.778-.714l.011-.011c3.447-1.416,7.311-3.227,11.176-5.5,4.556-2.69,9.123-6.038,13.031-10.177.571-3.886.779-9.419.856-13.009.044-2.141.044-3.601.044-3.601l11.121,1.142,11.066-1.57s.099,2.887.362,6.51c.252,3.26.615,7.125,1.164,10.056,1.811,1.778,3.754,3.403,5.763,4.852,6.971,5.127,14.743,8.42,20.847,10.539,1.581.549,3.019,1.317,4.325,2.24,1.592.395,8.486,3.162,17.016,22.428l16.709,50.85,51.355,50.159h.001Z"/>
  <path class="cls-7" d="m251.024,154.388c-1.789,2.009-7.267,6.323-22.79,9.891-20.99,4.819-31.803,1.416-31.803,1.416l.011-.011c3.447-1.416,7.311-3.227,11.176-5.5,4.556-2.69,9.123-6.038,13.031-10.177.571-3.886.779-9.419.856-13.009l22.593,2.481c.252,3.26.615,7.125,1.164,10.056,1.811,1.778,3.754,3.403,5.763,4.852h-.001Z"/>
  <path class="cls-7" d="m262.843,229.44c-7.366,3.26-20.239-3.058-31.173.466-10.934,3.535-16.346,13.646-18.465,26.589-2.119,12.932,3.293,31.737,3.293,31.737,0,0-9.77,2.712-22.648-11.571,3.359-8.431,7.081-15.336,9.924-20.101l-11-39.707-.703-2.536s-2.624-13.58,3.963-23.932c0,0-2.053,11.066,1.8,21.177,3.842,10.111,12.91,10.111,22.373,9.88s9.331-3.477,20.024-1.175c17.836,3.841,24.806,2.116,28.966-3.742,2.743-3.863.999,9.655-6.356,12.915h.002Z"/>
  <path class="cls-19" d="m212.086,121.383s-2.533-5.167-5.867-4.964-4.449,7.318.247,12.86c4.696,5.543,8.962,3.166,8.962,3.166l-3.342-11.062Z"/>
  <path class="cls-19" d="m253.898,120.581s2.333-5.26,5.672-5.185,4.727,7.141.247,12.86c-4.48,5.719-8.834,3.507-8.834,3.507l2.915-11.182h0Z"/>
  <path class="cls-9" d="m255.398,109.912c.396,20.646-11.906,39.102-21.707,39.29-11.887.228-23.386-19.162-23.755-38.417-.273-14.243,8.271-25.958,22.514-26.232,14.243-.273,22.675,11.116,22.948,25.359Z"/>
  <path class="cls-1" d="m215.031,111.817s3.344-.953,6.962-1.218c4.535-.332,6.207.141,6.207.141,0,0-.873-2.543-4.69-2.47-3.816.073-8.479,3.547-8.479,3.547Z"/>
  <path class="cls-19" d="m227.969,117.393s-2.677-3.6-6.12-3.638-6.497,3.88-6.497,3.88c0,0,.94,1.033,5.831,1.244,5.011.217,6.786-1.486,6.786-1.486h0Z"/>
  <path class="cls-1" d="m221.756,118.59c-3.245.03-5.884-.785-6.33-.931l-.048-.025s-.007.004-.011.006c-.005-.002-.016-.005-.016-.005.003.002.008.006.011.008-.57.367-1.741.465-1.741.465,1.207.376,2.164.251,2.592.157.936.636,2.594,1.47,5.563,1.437,4.264-.047,6.191-2.309,6.191-2.309,0,0-2.651,1.164-6.213,1.197h.002Z"/>
  <path class="cls-1" d="m250.122,111.143s-3.378-.824-7.003-.95c-4.545-.157-6.197.379-6.197.379,0,0,.775-2.575,4.591-2.648,3.817-.073,8.609,3.219,8.609,3.219h0Z"/>
  <path class="cls-19" d="m237.408,117.211s2.537-3.7,5.976-3.87c3.439-.171,6.641,3.628,6.641,3.628,0,0-.9,1.068-5.778,1.467-4.999.409-6.838-1.225-6.838-1.225h0Z"/>
  <path class="cls-1" d="m251.771,117.375s-1.174-.053-1.757-.398c.003-.002.007-.006.011-.008l-.015.006s-.008-.003-.011-.005l-.047.027c-.441.163-3.047,1.079-6.29,1.173-3.561.103-6.254-.958-6.254-.958,0,0,2.013,2.187,6.276,2.07,2.968-.081,4.593-.979,5.504-1.65.431.077,1.392.166,2.584-.256h-.001Z"/>
  <path class="cls-19" d="m229.736,129.772s1.829,1.112,3.326,1.188c1.497.075,3.278-1.315,3.278-1.315,0,0-1.394-.146-3.063-.184-1.67-.038-3.541.311-3.541.311h0Z"/>
  <path class="cls-16" d="m233.859,136.171c3.696-.223,6.043-1.386,6.043-1.386,0,0-3.955-.424-4.968-.226-.629.123-1.067.724-1.31,1.162-.259-.429-.72-1.013-1.353-1.111-1.02-.159-4.955.417-4.955.417,0,0,2.391,1.072,6.092,1.153-.001.003-.006.017-.006.017.079-.003.154-.009.232-.013.078,0,.153.004.232.004,0,0-.006-.013-.007-.016h0Z"/>
  <path class="cls-19" d="m228.45,136.603s.778,1.106,3.66,1.807c2.882.701,4.971-.487,6.697-1.589,0,0-1.56,2.977-4.812,3.378-3.252.401-5.433-3.155-5.545-3.597h0Z"/>
  <path class="cls-16" d="m241.586,96.791s-4.953-2.617-11.622-2.28c-6.669.337-11.85,5.547-13.781,9.235s-3.892,4.74-3.892,4.74c0,0,.61,8.942-1.1,12.753,0,0-2.31-3.862-4.971-4.819,0,0-2.278-8.162-.88-16.847s10.606-18.041,22.995-19.322c12.388-1.281,18.659,4.753,18.659,4.753,0,0,8.225,4.64,10.671,12.521,2.446,7.881.348,18.11.348,18.11,0,0-2.117,1.072-3.481,4.771,0,0-3.963-5.98-2.944-12.675,0,0-1.622-10.649-10-10.941h-.002Z"/>
  <path class="cls-16" d="m248.952,89.449c-2.483.786-18.51-7.888-18.51-7.888,0,0-.084-1.404.367-3.216.628-2.504,2.263-5.803,6.526-7.343.733-.262,1.456-.45,2.158-.576,6.421-1.089,11.753,3.31,13.283,7.794,1.697,4.976-1.33,10.454-3.823,11.229h0Z"/>
  <path class="cls-19" d="m228.2,110.74s1.554,2.91,2.428,7.329c.874,4.419.146,7.588.146,7.588,0,0-.855-12.498-7.216-15.147,0,0,3.489-.076,4.643.23h0Z"/>
  <path class="cls-16" d="m241.586,96.791s-7.912-2.648-14.648.281-6.575,7.204-11.254,7.566l-.603-1.119s1.247.239,4.097-2.007,8.86-10.329,22.408-4.721Z"/>
  <path class="cls-9" d="m209.403,332.973s-6.471.825-8.727,1.263c0,0-9.038-1.295-12.835-1.135-3.798.161-5.874,4.681-8.019,9.586s-10.457,10.131-13.394,13.186c-2.936,3.054-3.015,7.535-2.951,8.483s-1.849,3.648-.843,5.865c1.006,2.217,2.099,1.477,3.034,1.224s1.591-1.821,1.591-1.821c0,0,2.389.125,3.406-.325,1.017-.449.145-.676,2.42-.83,2.275-.153,3.494-.426,4.884-.996s10.912-10.448,16.067-13.08c5.155-2.633,13.102-2.025,13.102-2.025l2.265-19.395Z"/>
  <path class="cls-4" d="m355.524,339.685c-15.369,8.596-40.827,11.977-70.292,13.767-3.59.22-7.234.417-10.934.593l.505,12.778s-2.239-.022-6.202-.077c-12.153-.143-40.487-.505-70.029-1.098-47.776-.944-85.782-12.8-96.76-23.372-5.291-5.105-8.431-13.239-7.311-20.836.889-6.016,4.457-11.692,11.735-15.281,1.735-.856,4.764-1.943,8.859-3.107,12.844-3.678,36.085-8.124,61.718-8.365.406-.033.79-.055,1.164-.088,3.381-5.072,15.874-17.938,15.874-17.938,0,0,8.782,7.388,20.792,11.779,6.345,2.316,13.602,3.809,20.935,2.92,21.209-2.558,42.518-14.381,42.518-14.381,4.314,4.292,8.442,14.37,8.442,14.37,21.231.198,56.394,6.642,63.958,10.429.055.033.099.066.143.088,5.138,1.383,9.419,4.369,12.35,8.168,6.795,8.793,6.345,21.945-7.465,29.651h0Z"/>
  <path class="cls-9" d="m102.058,291.129s-5.344-.816-7.486-.775c-2.143.041-6.465,1.41-8.906,1.824-2.442.414-3.665.499-3.597.865s.882,1.269,3.584,1.646c2.702.377,5.013-.341,6.453-.369,1.44-.028,1.762.824,1.762.824,0,0-1.456,3.886-6.156,4.711s-6.55.126-6.869-.542c-.319-.667,1.675-5.238,1.153-6.942-.523-1.705-1.316-1.567-2.305,1.147s-2.715,5.319-2.681,7.094,3.064,3.309,3.064,3.309c0,0-5.831-.684-7.576.942-1.745,1.626,1.747,1.681,4.508,1.934s5.348,1.061,6.998.845c0,0-7.412-.103-8.859,1.089-1.447,1.191,1.508,1.992,4.324,1.938,2.816-.054,6.624.547,7.237.535,0,0-6.599.8-6.383,2.45.215,1.649,1.419.524,5.039.883s6.62.302,10.029-.744c3.409-1.045,16.96-11.391,16.96-11.391l-10.291-11.274h-.002Z"/>
  <path class="cls-21" d="m330.362,307.3c-28.235,4.007-107.277,24.239-107.277,24.239,0,0-41.64-19.058-69.557-23.526-26.512-4.238-41.98-2.13-38.434-4.962,12.844-3.678,36.085-8.124,61.718-8.365.406-.033.79-.055,1.164-.088,3.381-5.072,15.874-17.938,15.874-17.938,0,0,8.782,7.388,20.792,11.779.966,4.655,17.62,27.566,29.619,23.8,11.999-3.754,27.752-8.936,35.283-6.345,7.531,2.591,22.823,1.175,33.362-1.197,10.528-2.371,17.455,2.602,17.455,2.602h.001Z"/>
  <path class="cls-7" d="m350.77,301.68s0,.011-.011.033c-.099.209-.604,1.23-1.976,2.075-.011.011-.022.011-.022.011-.055.033-.11.066-.165.099-22.681-14.03-44.56-34.932-50.071-40.322-2.832-2.547-5.489-5.599-7.553-9.244-4.841-8.574-11.384-24.58-15.94-36.304l2.624-21.835s9.803,42.254,20.156,55.867c10.352,13.613,52.958,49.621,52.958,49.621h0Z"/>
  <path class="cls-7" d="m194.081,221.562l-1.306-4.71-.703-2.536c-4.611,11.45-13.108,31.858-19.036,41.892-2.13,3.601-4.83,6.598-7.728,9.09-5.599,5.28-27.917,25.787-50.861,39.4l-2.097-2.294s45.196-38.599,58.469-53.781c13.261-15.183,21.418-48.292,21.418-48.292l1.844,21.231h0Z"/>
  <path class="cls-21" d="m355.524,339.685c-15.369,8.596-40.827,11.977-70.292,13.767-12.317-2.02-21.111-6.817-21.111-6.817v-1.46l-41.003-13.624c.348.086,7.086-1.814,7.086-1.814,18.67,4.159,64.676,16.698,88.631,11.211,30.815-7.059,31.99-20.024,37.633-26.479,2.207-2.525,4.523-3.809,6.521-4.435,6.795,8.793,6.345,21.945-7.465,29.651h0Z"/>
  <path class="cls-9" d="m264.125,346.631s6.454.951,8.701,1.433c0,0,9.061-1.118,12.855-.883,3.794.235,5.781,4.795,7.829,9.741,2.049,4.946,10.257,10.334,13.133,13.445s2.867,7.593,2.785,8.539,1.777,3.683.728,5.88-2.128,1.436-3.058,1.164c-.93-.272-1.555-1.852-1.555-1.852,0,0-2.391.078-3.399-.391s-.132-.679-2.403-.877c-2.271-.198-3.485-.494-4.864-1.091s-10.706-10.659-15.808-13.392c-5.102-2.733-13.059-2.281-13.059-2.281l-1.885-19.435h0Z"/>
  <path class="cls-9" d="m361.278,290.606s5.358-.714,7.5-.632c2.141.082,6.436,1.533,8.87,1.994,2.433.461,3.655.569,3.579.934-.075.365-.906,1.252-3.614,1.577-2.708.325-5.006-.437-6.444-.492-1.439-.055-1.778.79-1.778.79,0,0,1.382,3.913,6.065,4.828s6.547.251,6.879-.411c.332-.661-1.575-5.269-1.02-6.963.555-1.695,1.346-1.542,2.283,1.19s2.613,5.37,2.545,7.144c-.068,1.774-3.127,3.25-3.127,3.25,0,0,5.843-.573,7.557,1.086,1.713,1.659-1.779,1.648-4.544,1.848-2.765.2-5.368.959-7.013.712,0,0,7.413.039,8.837,1.258s-1.546,1.963-4.36,1.855c-2.815-.108-6.634.42-7.246.396,0,0,6.582.926,6.335,2.571-.247,1.645-1.428.497-5.055.787-3.626.29-6.624.175-10.013-.935s-16.74-11.713-16.74-11.713l10.505-11.075h-.001Z"/>
  <path class="cls-21" d="m268.6,366.746c-12.153-.143-40.487-.505-70.029-1.098-47.776-.944-85.782-12.8-96.76-23.372-5.291-5.105-8.431-13.239-7.311-20.836,4.04,3.14,11.845,8.607,26.731,16.05,24.459,12.24,69.623,18.827,105.389,22.274,35.755,3.447,38.972,1.932,38.972,1.932l3.008,5.05h0Z"/>
  <path class="cls-12" d="m243.525,83.887c-4.829-2.357-12.465-3.803-12.465-3.803-.126-.608-.21-1.194-.251-1.739.628-2.504,2.263-5.803,6.526-7.343.733-.262,1.456-.45,2.158-.576-.806.828-1.645,2.367-.911,4.934,1.246,4.358,9.763,10.884,4.944,8.527h0Z"/>
  <path class="cls-12" d="m239.029,92.867s-8.9-3.367-17.413,0-9.698,12.458-11.687,13.356c0,0,1.724-12.196,10.867-14.852,9.142-2.656,18.233,1.497,18.233,1.497h0Z"/>
  <path class="cls-12" d="m245.763,87.255l-3.367,7.591s4.602-2.092,3.367-7.591Z"/>
</svg>